<svg xmlns="http://www.w3.org/2000/svg" viewBox="0 0 1600 1000"><defs><pattern id="grid" width="80" height="80" patternUnits="userSpaceOnUse"><path d="M80 0H0V80" fill="none" stroke="#26303c" stroke-width="1"/></pattern><linearGradient id="bg" x2="1" y2="1"><stop stop-color="#172431"/><stop offset="1" stop-color="#0a0c10"/></linearGradient></defs><path fill="url(#bg)" d="M0 0h1600v1000H0z"/><path fill="url(#grid)" d="M0 0h1600v1000H0z"/><g transform="translate(760 150) rotate(-10)" fill="#14212e" stroke="#5c829e" stroke-width="2"><rect width="620" height="480" rx="20"/><path d="M0 65h620"/><g fill="#8ab6d6" stroke="none"><circle cx="30" cy="32" r="5"/><circle cx="50" cy="32" r="5"/><circle cx="70" cy="32" r="5"/></g><g fill="#263f52"><rect x="65" y="140" width="120" height="60" rx="6"/><rect x="280" y="240" width="140" height="60" rx="6"/><rect x="450" y="125" width="100" height="60" rx="6"/></g><g fill="none" stroke="#5fa6ae"><path d="M185 170h60v100h35M420 270h65v-85M350 300v80H160V200"/><path d="M65 415h190M280 415h160" stroke="#436079"/></g></g><g fill="none" stroke="#477085" stroke-width="2" opacity=".6"><path d="M100 550l300-180 220 120-300 180zM100 550v140l220 120V670M620 490v140L320 810M400 370v140l220 120"/><path d="M180 500v145l220 120M260 450v145l220 120M320 430l220 120v140"/></g></svg>
